<svg version="1.1" id="Layer_1" xmlns="http://www.w3.org/2000/svg" xmlns:xlink="http://www.w3.org/1999/xlink" x="0px" y="0px"
	 width="256px" height="256px" viewBox="0 0 256 256" enable-background="new 0 0 256 256" xml:space="preserve">
	<path fill="#808080" d="M144.17,115.13c-1.1-1.686-2.75-3.097-4.949-4.233c-2.201-1.137-4.549-1.705-7.041-1.705
		c-2.713,0-5.115,0.513-7.205,1.54s-3.869,2.402-5.334,4.125c-1.469,1.723-2.586,3.722-3.355,5.994
		c-0.77,2.273-1.154,4.658-1.154,7.149c0,2.494,0.385,4.878,1.154,7.151s1.887,4.271,3.355,5.995
		c1.465,1.723,3.262,3.098,5.389,4.125c2.127,1.026,4.547,1.54,7.26,1.54c2.641,0,5.041-0.514,7.205-1.54
		c2.162-1.027,3.941-2.421,5.336-4.182l6.93,6.271c-2.199,2.568-4.949,4.565-8.25,5.996c-3.301,1.429-7.039,2.144-11.221,2.144
		c-4.033,0-7.754-0.66-11.164-1.979c-3.41-1.321-6.363-3.172-8.855-5.557c-2.494-2.382-4.455-5.261-5.885-8.635
		c-1.43-3.372-2.146-7.149-2.146-11.33c0-4.105,0.696-7.846,2.091-11.22c1.393-3.372,3.336-6.27,5.83-8.69
		c2.492-2.42,5.445-4.289,8.855-5.608c3.41-1.321,7.094-1.981,11.055-1.981c3.666,0,7.314,0.734,10.945,2.2
		c3.629,1.468,6.506,3.594,8.635,6.38L144.17,115.13z"/>
</svg>
