<?xml version="1.0" encoding="utf-8"?>
<!-- Generator: Adobe Illustrator 18.1.0, SVG Export Plug-In . SVG Version: 6.00 Build 0)  -->
<!DOCTYPE svg PUBLIC "-//W3C//DTD SVG 1.1//EN" "http://www.w3.org/Graphics/SVG/1.1/DTD/svg11.dtd">
<svg fill="white" version="1.1" id="Layer_1" xmlns="http://www.w3.org/2000/svg" xmlns:xlink="http://www.w3.org/1999/xlink" x="0px" y="0px"
	 viewBox="0 0 500 500" enable-background="new 0 0 500 500" xml:space="preserve">
<g>
	<ellipse transform="matrix(-0.7776 -0.6287 0.6287 -0.7776 411.7467 535.3215)" cx="300.5" cy="194.8" rx="18.8" ry="43.3"/>
	<rect x="196.5" y="129.9" transform="matrix(-0.7776 -0.6287 0.6287 -0.7776 354.4901 440.8355)" width="117.4" height="55.7"/>
	<polygon points="227.2,99.8 148.1,121 192.5,142.8 	"/>
	<rect x="160.9" y="129.8" transform="matrix(-0.7776 -0.6287 0.6287 -0.7776 152.8214 564.7427)" width="30.7" height="251.1"/>
	<path d="M87.3,344.8l20.1,16.3c5.1,4.1,12.7,3.3,16.9-1.8l63.8-79c4.1-5.1,3.3-12.7-1.8-16.9l-20.1-16.3
		c-5.1-4.1-12.7-3.3-16.9,1.8l-63.8,79C81.4,333.1,82.2,340.7,87.3,344.8z"/>
</g>
<g>
	<ellipse transform="matrix(-0.6875 0.7262 -0.7262 -0.6875 733.2547 139.4396)" cx="336.6" cy="227.5" rx="34.6" ry="11.7"/>
	<polygon points="408.2,281.4 415.4,302.1 394.4,296 332.4,237.4 346.2,222.8 	"/>
</g>
</svg>
