<?xml version="1.0" encoding="utf-8"?>
<!-- Generator: Adobe Illustrator 18.1.0, SVG Export Plug-In . SVG Version: 6.00 Build 0)  -->
<!DOCTYPE svg PUBLIC "-//W3C//DTD SVG 1.1//EN" "http://www.w3.org/Graphics/SVG/1.1/DTD/svg11.dtd">
<svg fill="white" version="1.1" id="Layer_1" xmlns="http://www.w3.org/2000/svg" xmlns:xlink="http://www.w3.org/1999/xlink" x="0px" y="0px"
	 viewBox="0 0 500 500" enable-background="new 0 0 500 500" xml:space="preserve">
<g>
	<path d="M324.3,280.5c10.1,49.3,0.7,103.7-32.8,121.4c-10.5,5.5-29,4.7-40.9,4.7c-9,0-28.9,0.3-37.2-2.9
		c-37.6-14.7-53.8-62.5-53.8-116.6c0-66,40.7-119.5,91-119.5S310.9,215.2,324.3,280.5z M250.4,181.5c-40.3,0.4-72.9,45.6-72.9,101.9
		s30.5,57.5,70.7,57.5s74.9-2.8,63.2-57.9C294.9,204.6,290.6,181.1,250.4,181.5z"/>
	<path d="M260.3,170.1h-26.2c-6.6,0-12-5.4-12-12v-10.7c0-6.6,5.4-12,12-12h26.2c6.6,0,12,5.4,12,12v10.7
		C272.3,164.7,266.9,170.1,260.3,170.1z"/>
	<rect x="243.8" y="178.6" width="6.7" height="164.8"/>
	<polygon points="326.3,135.4 205.8,135.4 195.3,113 205.8,90.6 325.8,107.3 	"/>
	<path d="M343.8,135.4h-18v-28.1h18V135.4z M340.1,109.6h-10.7v22.8h10.7V109.6z"/>
	<path d="M303.1,158.8c-1,0.6-8.4-4.3-10.9-15.6c-0.5-2.2-3.2-14.2-3.2-14.2l0,0c-2.1-0.6,4.5,0.9,6.2,2.2c2.6,2,6.1,0,5.3,10
		C299.7,151.8,303.9,158.3,303.1,158.8z"/>
</g>
</svg>
