<?xml version="1.0" encoding="utf-8"?>
<!-- Generator: Adobe Illustrator 18.1.0, SVG Export Plug-In . SVG Version: 6.00 Build 0)  -->
<!DOCTYPE svg PUBLIC "-//W3C//DTD SVG 1.1//EN" "http://www.w3.org/Graphics/SVG/1.1/DTD/svg11.dtd">
<svg fill="white" version="1.1" id="Layer_1" xmlns="http://www.w3.org/2000/svg" xmlns:xlink="http://www.w3.org/1999/xlink" x="0px" y="0px"
	 viewBox="0 0 500 500" enable-background="new 0 0 500 500" xml:space="preserve">
<g>
	<g id="b103_soup">
		<path d="M332.5,205.6h-67.8c6.1,0,11.1-5,11.1-11.1c0-6.1-5-11.1-11.1-11.1H237c-6.1,0-11.1,4.9-11.1,11.1s5,11.1,11.1,11.1h-67.8
			c-18.9,0-34.5,16.9-37.5,34.9H370C366.9,222.5,351.3,205.6,332.5,205.6z"/>
		<path d="M370.5,259.5v-3.2H131.7h-0.6H91.4v15.9h39.8v98.3c0,21.1,17.1,38.1,38.1,38.1h163.3c21,0,38.1-17,38.1-38.1v-95.1h38.1
			v-15.9H370.5z"/>
		<path d="M192.6,129.5c1.1,1.5,2.3,2.9,3.5,4.2l3.1,3.1c1.9,2,3.8,3.9,5.2,5.7c0.7,0.9,1.3,1.7,1.8,2.4c0.4,0.7,0.8,1.2,0.9,2
			c0.1,0.8-0.3,2-1.2,3.1c-0.9,1.1-2.1,2.2-3.5,3.3c1.7,0.6,3.5,0.9,5.4,0.6c1.9-0.2,4.1-1.1,5.8-2.9c1.8-1.8,2.7-4.6,2.9-7
			c0.2-2.4-0.2-4.6-0.7-6.6c-1.1-3.9-2.9-7.1-4.9-10.1c-1-1.4-2.2-2.9-3.1-4c-0.9-1-1.7-2.1-2.4-3.1c-3-4.1-5.1-7.9-5.8-12.2
			c-0.8-4.4,0.1-10.1,2.8-16.6c-6.9,1.5-13.1,7.3-15.1,15.4c-1,4-0.8,8.4,0.3,12.3C188.6,123,190.4,126.5,192.6,129.5z"/>
		<path d="M233.7,129.5c1.1,1.5,2.3,2.9,3.5,4.2l3.1,3.1c1.9,2,3.7,3.9,5.2,5.7c0.7,0.9,1.3,1.7,1.7,2.4c0.4,0.7,0.8,1.2,0.9,2
			c0.1,0.8-0.3,2-1.2,3.1c-0.9,1.1-2.1,2.2-3.5,3.3c1.7,0.6,3.5,0.9,5.5,0.6c1.9-0.2,4.1-1.1,5.8-2.9c1.8-1.8,2.7-4.6,2.9-7
			c0.2-2.4-0.2-4.6-0.7-6.6c-1.1-3.9-3-7.1-4.9-10.1c-1-1.4-2.2-2.9-3.1-4c-0.8-1-1.7-2.1-2.4-3.1c-3-4.1-5.1-7.9-5.8-12.2
			c-0.8-4.4,0.1-10.1,2.7-16.6c-6.9,1.5-13.1,7.3-15.1,15.4c-1,4-0.8,8.4,0.3,12.3C229.7,123,231.5,126.5,233.7,129.5z"/>
		<path d="M271.2,129.5c1.1,1.5,2.3,2.9,3.5,4.2l3.1,3.1c1.9,2,3.7,3.9,5.2,5.7c0.7,0.9,1.3,1.7,1.8,2.4c0.4,0.7,0.8,1.2,0.9,2
			c0.1,0.8-0.3,2-1.2,3.1c-0.9,1.1-2.1,2.2-3.5,3.3c1.7,0.6,3.5,0.9,5.4,0.6c1.9-0.2,4.1-1.1,5.9-2.9c1.8-1.8,2.7-4.6,2.9-7
			c0.2-2.4-0.2-4.6-0.7-6.6c-1.1-3.9-2.9-7.1-4.9-10.1c-1-1.4-2.2-2.9-3.1-4c-0.9-1-1.7-2.1-2.4-3.1c-3-4.1-5.1-7.9-5.8-12.2
			c-0.8-4.4,0.1-10.1,2.7-16.6c-6.9,1.5-13.1,7.3-15.1,15.4c-1,4-0.8,8.4,0.3,12.3C267.2,123,269,126.5,271.2,129.5z"/>
	</g>
</g>
</svg>
