<?xml version="1.0" encoding="utf-8"?>
<!-- Generator: Adobe Illustrator 18.1.0, SVG Export Plug-In . SVG Version: 6.00 Build 0)  -->
<!DOCTYPE svg PUBLIC "-//W3C//DTD SVG 1.1//EN" "http://www.w3.org/Graphics/SVG/1.1/DTD/svg11.dtd">
<svg fill="white" version="1.1" id="Layer_1" xmlns="http://www.w3.org/2000/svg" xmlns:xlink="http://www.w3.org/1999/xlink" x="0px" y="0px"
	 viewBox="0 0 500 500" enable-background="new 0 0 500 500" xml:space="preserve">
<g>
	<rect x="227.7" y="51.2" transform="matrix(0.689 0.7248 -0.7248 0.689 261.7582 -96.7684)" width="31.8" height="410.9"/>
	<path d="M78.9,436.4l-23.1-24.3c-4.5-4.8-4.4-12.4,0.4-17L168.8,288c4.8-4.5,12.4-4.4,17,0.4l23.1,24.3c4.5,4.8,4.4,12.4-0.4,17
		L95.8,436.8C91,441.4,83.4,441.2,78.9,436.4z"/>
	<path d="M407.1,227.8l-44-46.3c-4.5-4.8-4.4-12.4,0.4-17l43-40.9c4.8-4.5,12.4-4.4,17,0.4l44,46.3c4.5,4.8,4.4,12.4-0.4,17
		l-43,40.9C419.3,232.8,411.7,232.6,407.1,227.8z"/>
	<path d="M324.7,141.1l-44-46.3c-4.5-4.8-4.4-12.4,0.4-17l43-40.9c4.8-4.5,12.4-4.4,17,0.4l44,46.3c4.5,4.8,4.4,12.4-0.4,17
		l-43,40.9C336.9,146,329.2,145.8,324.7,141.1z"/>
</g>
</svg>
