<?xml version="1.0" encoding="utf-8"?>
<!-- Generator: Adobe Illustrator 18.1.0, SVG Export Plug-In . SVG Version: 6.00 Build 0)  -->
<!DOCTYPE svg PUBLIC "-//W3C//DTD SVG 1.1//EN" "http://www.w3.org/Graphics/SVG/1.1/DTD/svg11.dtd">
<svg fill="white" version="1.1" id="Layer_1" xmlns="http://www.w3.org/2000/svg" xmlns:xlink="http://www.w3.org/1999/xlink" x="0px" y="0px"
	 viewBox="0 0 500 500" enable-background="new 0 0 500 500" xml:space="preserve">
<path d="M432.1,90.7l-24.6-24.6c-3.3-3.3-8.7-3.3-12.1,0l-33.2,33.2L319.4,93c-2.7-0.4-5.4,0.5-7.3,2.4l-41.1,41.1l-2.7-2.7
	c-3.3-3.3-8.7-3.3-12.1,0L238.1,152c-3.3,3.3-3.3,8.7,0,12.1l96.1,96.1c3.3,3.3,8.7,3.3,12.1,0l18.2-18.2c3.3-3.3,3.3-8.7,0-12.1
	l-2.7-2.7l41.1-41.1c1.9-1.9,2.8-4.6,2.4-7.3l-6.3-42.8l33.2-33.2C435.4,99.4,435.4,94,432.1,90.7z"/>
<path d="M260.5,261.7l-25.1,25.1l-30.6-30.6l25.1-25.1c5.6-5.6,5.6-14.6,0-20.1c-5.6-5.6-14.6-5.6-20.1,0L184.7,236l-12.6-12.6
	c-3.3-3.3-8.7-3.3-12.1,0l-18.2,18.2c-3.3,3.3-3.3,8.7,0,12.1l2.7,2.7l-41.1,41.1c-1.9,1.9-2.8,4.6-2.4,7.3l6.3,42.8l-33.2,33.2
	c-3.3,3.3-3.3,8.7,0,12.1l24.6,24.6c3.3,3.3,8.7,3.3,12.1,0l33.2-33.2l42.8,6.3c2.7,0.4,5.4-0.5,7.3-2.4l41.1-41.1l2.7,2.7
	c3.3,3.3,8.7,3.3,12.1,0l18.2-18.2c3.3-3.3,3.3-8.7,0-12.1l-12.6-12.6l25.1-25.1c5.6-5.6,5.6-14.6,0-20.1
	C275.1,256.1,266.1,256.1,260.5,261.7z"/>
</svg>
