<?xml version="1.0" encoding="utf-8"?>
<!-- Generator: Adobe Illustrator 18.1.0, SVG Export Plug-In . SVG Version: 6.00 Build 0)  -->
<!DOCTYPE svg PUBLIC "-//W3C//DTD SVG 1.1//EN" "http://www.w3.org/Graphics/SVG/1.1/DTD/svg11.dtd">
<svg fill="white" version="1.1" id="Layer_1" xmlns="http://www.w3.org/2000/svg" xmlns:xlink="http://www.w3.org/1999/xlink" x="0px" y="0px"
	 viewBox="0 0 500 500" enable-background="new 0 0 500 500" xml:space="preserve">
<g>
	<polygon points="333.8,257 332.4,144.2 48.2,230.6 163.2,308.1 	"/>
	<path d="M117.2,390.7c24.8-7.4,40.2-31.2,38-56L257.9,304l23.6,35.7c1.5,2.2,3.9,3.5,6.5,3.5c0.7,0,1.5,0.1,2.2-0.1l34-10
		c3.3-1,5.5-3.7,5.5-7.1l-0.3-43.3l27.2-8.1l0.2-105.2l22.6-6.8c3.4,3.8,9.7,5.2,16.1,3.3l44.5-13.3c8.2-2.5,13.4-9.3,11.4-15.9
		l-1.8-6.1c-2-6.7-10.3-10.1-18.5-7.7l-44.5,13.3c-6.2,1.8-10.5,6.5-11.5,11.5l-33.9,10.1l-0.2,105.2l-189.4,56.7
		c-10.1-25.7-38.3-39.7-65.2-31.7c-28.4,8.5-44.5,38.4-36,66.8C59,383.1,88.9,399.2,117.2,390.7z"/>
</g>
</svg>
