<?xml version="1.0" encoding="utf-8"?>
<!-- Generator: Adobe Illustrator 18.1.0, SVG Export Plug-In . SVG Version: 6.00 Build 0)  -->
<!DOCTYPE svg PUBLIC "-//W3C//DTD SVG 1.1//EN" "http://www.w3.org/Graphics/SVG/1.1/DTD/svg11.dtd">
<svg fill="white" version="1.1" id="Layer_1" xmlns="http://www.w3.org/2000/svg" xmlns:xlink="http://www.w3.org/1999/xlink" x="0px" y="0px"
	 viewBox="0 0 500 500" enable-background="new 0 0 500 500" xml:space="preserve">
<g>
	<rect x="55.7" y="206.5" transform="matrix(0.8102 -0.5862 0.5862 0.8102 -104.087 103.765)" width="105" height="12.2"/>
	<rect x="343.1" y="206.5" transform="matrix(-0.8102 -0.5862 0.5862 -0.8102 591.3835 616.7051)" width="105" height="12.2"/>
	<path d="M356.7,363.1H146.7V176.9h209.9V363.1z M310.4,205.1v-0.8c0-4.1-3.4-7.5-7.5-7.5H196.9c-4.1,0-7.5,3.4-7.5,7.5v0.8
		c0,4.1,3.4,7.5,7.5,7.5h105.9C307,212.6,310.4,209.2,310.4,205.1z M245.8,332l-13.6-23.6L218.5,332h10.6h6.5H245.8z M285.7,332
		L272,308.3L258.4,332H285.7z M236.9,332h-9.4v18h9.4V332z M276.8,332h-9.4v18h9.4V332z"/>
</g>
</svg>
