<?xml version="1.0" encoding="utf-8"?>
<!-- Generator: Adobe Illustrator 18.1.0, SVG Export Plug-In . SVG Version: 6.00 Build 0)  -->
<!DOCTYPE svg PUBLIC "-//W3C//DTD SVG 1.1//EN" "http://www.w3.org/Graphics/SVG/1.1/DTD/svg11.dtd">
<svg fill="white" version="1.1" id="Layer_1" xmlns="http://www.w3.org/2000/svg" xmlns:xlink="http://www.w3.org/1999/xlink" x="0px" y="0px"
	 viewBox="0 0 500 500" enable-background="new 0 0 500 500" xml:space="preserve">
<g>
	<path d="M434.4,253.7l-42.7,44.4c-4.6,4.8-12.2,4.9-17,0.3L223.5,153c-4.8-4.6-4.9-12.2-0.3-17l42.7-44.4c4.6-4.8,12.2-4.9,17-0.3
		l151.4,145.4C438.9,241.3,439,249,434.4,253.7z"/>
	<rect x="221.4" y="67.3" transform="matrix(0.6929 -0.7211 0.7211 0.6929 -6.2529 211.5314)" width="47.5" height="91.5"/>
	<rect x="150.3" y="107.8" transform="matrix(0.6929 -0.7211 0.7211 0.6929 -31.2287 179.1887)" width="88.9" height="37"/>
	<rect x="113.4" y="199.6" transform="matrix(-0.3681 -0.9298 0.9298 -0.3681 66.6508 475.1677)" width="162.7" height="30.6"/>
	<rect x="69.4" y="326.7" transform="matrix(0.6929 -0.7211 0.7211 0.6929 -196.2925 222.5606)" width="187.5" height="29.9"/>
	<path d="M213.6,325.4L102.9,440.6c-4.6,4.8-12.2,4.9-17,0.3l-20-19.2c-4.8-4.6-4.9-12.2-0.3-17l110.7-115.2
		c4.6-4.8,12.2-4.9,17-0.3l20,19.2C218,313,218.2,320.6,213.6,325.4z"/>
</g>
</svg>
