<?xml version="1.0" encoding="utf-8"?>
<!-- Generator: Adobe Illustrator 18.1.0, SVG Export Plug-In . SVG Version: 6.00 Build 0)  -->
<!DOCTYPE svg PUBLIC "-//W3C//DTD SVG 1.1//EN" "http://www.w3.org/Graphics/SVG/1.1/DTD/svg11.dtd">
<svg fill="white" version="1.1" id="Layer_1" xmlns="http://www.w3.org/2000/svg" xmlns:xlink="http://www.w3.org/1999/xlink" x="0px" y="0px"
	 viewBox="0 0 500 500" enable-background="new 0 0 500 500" xml:space="preserve">
<path d="M344.9,286v-89c0-12-4.2-22-12.5-30s-18.2-12.1-29.7-12.1L148.9,155v-15.7h-28.3v103.9l26.7,0.1l-2.5-15
	h125.9V286h-16.4v31.2h106.9V286H344.9z"/>
<path d="M340.2,400.9c0-4.7-2.5-12.1-7.4-22.2c-4.9-10.1-9.9-19.1-14.8-26.9l-7.4-11.7c-19.3,29.7-28.9,50-28.9,60.9
	c0,7.8,2.9,14.6,8.6,20.3c5.7,5.7,12.6,8.6,20.7,8.6c8.1,0,15-2.9,20.7-8.6S340.2,408.7,340.2,400.9z"/>
<rect x="120.7" y="139.3" width="28.2" height="103.9"/>
<ellipse cx="250.4" cy="157.9" rx="28.2" ry="33.2"/>
<g>
	<circle cx="184.2" cy="110.8" r="23.4"/>
	<circle cx="251.2" cy="111.8" r="23.4"/>
	<circle cx="317.2" cy="111.8" r="23.4"/>
	<rect x="184.7" y="103.2" width="133" height="15.2"/>
</g>
</svg>
